<?xml version="1.0" standalone="no"?>
<!DOCTYPE svg PUBLIC "-//W3C//DTD SVG 20010904//EN"
 "http://www.w3.org/TR/2001/REC-SVG-20010904/DTD/svg10.dtd">
<svg version="1.0" xmlns="http://www.w3.org/2000/svg"
 width="200.000000pt" height="200.000000pt" viewBox="0 0 200.000000 200.000000"
 preserveAspectRatio="xMidYMid meet">

<g transform="translate(0.000000,200.000000) scale(0.100000,-0.100000)"
fill="#000000" stroke="none">
<path d="M0 860 l0 -860 1000 0 1000 0 0 190 c0 105 -4 190 -8 190 -5 0 -19
-9 -32 -20 -13 -11 -31 -20 -42 -20 -10 0 -18 -4 -18 -9 0 -5 -14 -14 -30 -21
-16 -7 -30 -16 -30 -20 0 -10 -69 -38 -115 -46 -22 -4 -43 -12 -47 -18 -5 -8
-11 -7 -20 2 -16 16 -45 16 -52 0 -3 -7 -4 14 -2 47 4 58 -16 189 -34 230 -55
122 -54 151 8 213 26 27 52 57 58 68 8 15 24 20 68 22 53 3 57 5 54 25 -3 19
-10 22 -58 25 -30 2 -58 6 -62 10 -3 4 -9 33 -11 65 l-5 57 54 0 c51 0 54 2
54 25 0 22 -4 24 -57 27 -56 3 -56 3 -84 53 -15 28 -28 53 -28 58 -1 4 28 7
63 7 89 0 126 9 126 30 0 15 -15 18 -121 25 -66 4 -123 5 -125 2 -3 -3 -6 -14
-7 -26 -1 -17 -3 -18 -17 -7 -25 21 -49 27 -158 40 -62 7 -109 8 -119 3 -11
-7 -14 -6 -9 2 11 17 -10 13 -24 -4 -11 -13 -15 -13 -21 -3 -6 8 -9 9 -9 2 0
-8 -16 -8 -60 1 -33 7 -60 10 -60 6 0 -3 -4 0 -8 6 -5 7 -21 15 -38 17 -86 11
-171 27 -189 35 -96 44 -134 58 -139 53 -3 -3 -6 0 -6 6 0 7 -9 12 -20 12 -11
0 -28 9 -38 21 -22 26 -95 58 -149 66 -24 3 -43 10 -43 14 0 5 -6 9 -12 9 -49
0 -94 27 -166 97 -68 68 -181 153 -204 153 -4 0 -8 -387 -8 -860z m520 330 c0
-19 -7 -20 -95 -20 l-95 0 0 -70 0 -70 85 0 c78 0 85 -2 85 -20 0 -18 -7 -20
-85 -20 l-85 0 0 -90 0 -90 -30 0 -30 0 0 200 0 200 125 0 c118 0 125 -1 125
-20z"/>
</g>
</svg>
